{"accessors" : [{"bufferView" : 0, "byteOffset" : 0, "componentType" : 5123, "count" : 1506, "type" : "SCALAR", "max" : [1488], "min" : [0]}, {"bufferView" : 1, "byteOffset" : 0, "componentType" : 5126, "count" : 1489, "type" : "VEC3", "max" : [2.6293864250183105, 7.619999885559082, 1.2699999809265137], "min" : [-2.7367007732391357, -7.619999885559082, -1.2699999809265137], "name" : "POSITION"}, {"bufferView" : 1, "byteOffset" : 12, "componentType" : 5126, "count" : 1489, "type" : "VEC3", "max" : [0.9996338486671448, 0.6763647198677063, 1.0000044107437134], "min" : [-1.0000015497207642, -1.0000044107437134, -1.0000044107437134], "name" : "NORMAL"}], "asset" : {"generator" : "Aspose.3D 23.9.0", "version" : "2.0"}, "buffers" : [{"uri" : "data:application/octet-stream;base64,", "byteLength" : 39164}], "bufferViews" : [{"buffer" : 0, "byteOffset" : 0, "byteLength" : 3012, "target" : 34963}, {"buffer" : 0, "byteOffset" : 3016, "byteLength" : 36144, "byteStride" : 24, "target" : 34962}], "meshes" : [{"primitives" : [{"attributes" : {"POSITION" : 1, "NORMAL" : 2}, "indices" : 0, "mode" : 4}], "name" : ""}], "nodes" : [{"mesh" : 0, "name" : ""}], "scene" : 0, "scenes" : [{"nodes" : [0]}]}